<svg xmlns="http://www.w3.org/2000/svg" viewBox="0 0 200 240" fill="none">
  <defs>
    <linearGradient id="bg" x1="0" y1="0" x2="1" y2="1">
      <stop offset="0%" stop-color="var(--accent-primary-light, #ffe5f0)"/>
      <stop offset="100%" stop-color="var(--accent-primary-light, #e0c3fc)"/>
    </linearGradient>
    <linearGradient id="body" x1="0.5" y1="0" x2="0.5" y2="1">
      <stop offset="0%" stop-color="var(--accent-primary, #ff6b9d)"/>
      <stop offset="100%" stop-color="var(--accent-secondary, #c77dff)"/>
    </linearGradient>
  </defs>
  <rect width="200" height="240" rx="16" fill="url(#bg)" opacity="0.3"/>
  <circle cx="100" cy="75" r="35" fill="url(#body)" opacity="0.4"/>
  <ellipse cx="100" cy="175" rx="50" ry="60" fill="url(#body)" opacity="0.3"/>
  <circle cx="100" cy="75" r="35" stroke="url(#body)" stroke-width="2" fill="none" opacity="0.5"/>
  <path d="M85 70a3 3 0 100-6 3 3 0 000 6zM115 70a3 3 0 100-6 3 3 0 000 6z" fill="var(--accent-primary, #ff6b9d)" opacity="0.5"/>
  <path d="M92 85c0 0 8 8 16 0" stroke="var(--accent-primary, #ff6b9d)" stroke-width="2" stroke-linecap="round" fill="none" opacity="0.5"/>
  <path d="M50 150c0-30 15-55 50-55s50 25 50 55" stroke="url(#body)" stroke-width="3" fill="none" opacity="0.4"/>
  <text x="100" y="225" text-anchor="middle" font-family="Inter, sans-serif" font-size="11" opacity="0.4">Personaje</text>
</svg>
